<?xml version="1.0" encoding="utf-8"?>
<!-- Generator: Adobe Illustrator 21.0.0, SVG Export Plug-In . SVG Version: 6.00 Build 0)  -->
<svg version="1.1" xmlns="http://www.w3.org/2000/svg" xmlns:xlink="http://www.w3.org/1999/xlink" x="0px" y="0px"
	 viewBox="0 0 350 40" style="enable-background:new 0 0 350 40;" xml:space="preserve">
<style type="text/css">
	.st0{fill:#5B5B5B;}
	.st1{fill:#656565;}
	.st2{fill:#6C6C6C;}
	.st3{fill:#787777;}
	.st4{fill:#807F7F;}
	.st5{fill:#888787;}
	.st6{fill:#8F8F8F;}
	.st7{fill:#9B9A9A;}
	.st8{fill:#A5A4A4;}
	.st9{fill:#B0AFAF;}
	.st10{opacity:0.77;}
	.st11{fill:url(#SVGID_1_);}
	.st12{opacity:0.6;}
	.st13{opacity:0.55;}
</style>
<g id="Wallpapers">
	<g>
		<path class="st0" d="M137.5,19.3h-0.1l-2,18.7h-7.6L124,3h5.4l2.9,27.6h0.1L135,3h5.3l2.7,27.8h0.1L145.9,3h4.8l-3.9,35h-7.3
			L137.5,19.3z"/>
		<path class="st1" d="M173.7,38h-5.6l-1-6.4h-6.8l-1,6.4h-5.1L160,3h8.1L173.7,38z M161.1,26.9h5.3l-2.6-17.7h-0.1L161.1,26.9z"/>
		<path class="st2" d="M178.7,3h5.5v30h9v5h-14.6V3z"/>
		<path class="st3" d="M198.2,3h5.5v30h9.1v5h-14.6V3z"/>
		<path class="st4" d="M233.9,11.6v4.6c0,5.6-2.7,8.7-8.2,8.7h-2.6V38h-5.5V3h8.1C231.2,3,233.9,6,233.9,11.6z M223.1,8v11.9h2.6
			c1.8,0,2.7-0.8,2.7-3.3v-5.3c0-2.5-1-3.3-2.7-3.3H223.1z"/>
		<path class="st5" d="M256.8,38h-5.5l-1-6.4h-6.8l-1,6.4h-5.1l5.6-35h8.1L256.8,38z M244.2,26.9h5.3l-2.6-17.7h-0.1L244.2,26.9z"/>
		<path class="st6" d="M278.1,11.6v4.6c0,5.6-2.7,8.7-8.2,8.7h-2.6V38h-5.5V3h8.1C275.4,3,278.1,6,278.1,11.6z M267.3,8v11.9h2.6
			c1.8,0,2.7-0.8,2.7-3.3v-5.3c0-2.5-1-3.3-2.7-3.3H267.3z"/>
		<path class="st7" d="M288.7,17.7h7.6v5h-7.6V33h9.5v5h-15V3h15v5h-9.5V17.7z"/>
		<path class="st8" d="M315.6,38c-0.3-0.9-0.5-1.5-0.5-4.3v-5.5c0-3.3-1.1-4.5-3.6-4.5h-1.9V38h-5.5V3h8.3c5.7,0,8.2,2.6,8.2,8.1
			v2.8c0,3.6-1.2,5.9-3.6,7.1v0.1c2.8,1.1,3.7,3.8,3.7,7.4v5.4c0,1.7,0,3,0.6,4.3H315.6z M309.6,8v10.8h2.1c2.1,0,3.3-0.9,3.3-3.7
			v-3.5c0-2.5-0.9-3.6-2.8-3.6H309.6z"/>
		<path class="st9" d="M334.1,2.6c5.4,0,8.1,3.2,8.1,8.8v1.1H337V11c0-2.5-1-3.5-2.8-3.5s-2.8,1-2.8,3.5c0,2.6,1.1,4.5,4.7,7.6
			c4.6,4.1,6,7,6,11c0,5.6-2.8,8.8-8.2,8.8s-8.2-3.2-8.2-8.8v-2.2h5.2v2.5c0,2.5,1.1,3.4,2.9,3.4c1.8,0,2.8-0.9,2.8-3.4
			c0-2.5-1.1-4.5-4.7-7.6c-4.6-4-6.1-7-6.1-11C326,5.8,328.7,2.6,334.1,2.6z"/>
	</g>
</g>
<g id="_x3C_Type_x3E_">
	<g>
	</g>
</g>
<g id="HD_xA0_Image_1_">
</g>
<g id="Layer_2_xA0_Image_1_">
	<g class="st10">
		<g>
			<path d="M80,37.5h-5.5V2.3H80v15.1h6.3V2.3h5.6v35.2h-5.6V22.4H80V37.5z"/>
		</g>
		<g>
			<linearGradient id="SVGID_1_" gradientUnits="userSpaceOnUse" x1="74.501" y1="19.8826" x2="91.9424" y2="19.8826">
				<stop  offset="0" style="stop-color:#646464"/>
				<stop  offset="1" style="stop-color:#313131"/>
			</linearGradient>
			<path class="st11" d="M80,37.5h-5.5V2.3H80v15.1h6.3V2.3h5.6v35.2h-5.6V22.4H80V37.5z"/>
		</g>
	</g>
	<path class="st12" d="M37.3,35.6h0.2c-3.7-0.5-4-3-4.1-3.5h7l0-5.4c0,0,0,0,0-0.1v-0.5H12.7c-0.3,0-0.5-0.2-0.5-0.5V5
		c0-0.3,0.2-0.5,0.5-0.5h2H15h28.8H44h1.5C45.7,4.6,46,4.8,46,5v6.3h2.3V5c0-1.5-1.3-2.8-2.8-2.8h-1.7H15h-2.3
		c-1.5,0-2.8,1.3-2.8,2.8v20.6c0,0,0,0,0,0v3.7c0,0,0,0,0,0v0.2c0,0,0,0,0,0v0.1h0c0.1,1.3,1.1,2.4,2.5,2.4h12.4
		c0,0.6-0.3,3.1-4.1,3.5h0.1c-0.6,0-1.1,0.5-1.1,1.1c0,0.6,0.5,1.1,1.1,1.1h16.4c0.6,0,1.1-0.5,1.1-1.1
		C38.3,36.1,37.8,35.6,37.3,35.6z M29.1,30.7c-0.8,0-1.4-0.6-1.4-1.4c0-0.8,0.6-1.4,1.4-1.4s1.4,0.6,1.4,1.4
		C30.5,30.1,29.8,30.7,29.1,30.7z M54.6,36v-1.6H45l0,0c0,0-0.1,0-0.1,0c-0.4,0-0.8-0.4-0.8-0.9V16.3c0-0.5,0.4-0.9,0.9-0.9h12.1
		c0.5,0,0.9,0.4,0.9,0.9v2.8c0.1,0,0.3,0,0.4,0h1.4v-2.5l0,0v-1.3l0,0c0-0.1,0-0.2,0-0.3c-0.1-0.5-0.3-1-0.7-1.3c0,0,0,0,0,0
		c0,0,0,0,0,0c-0.2-0.1-0.4-0.2-0.7-0.3c-0.2,0-0.3-0.1-0.5-0.1l-6.7,0l-6.7,0c-0.1,0-0.1,0-0.2,0c-0.4,0-0.7,0.2-1,0.4
		c-0.5,0.3-0.8,0.9-0.8,1.5c0,0,0,0.1,0,0.1v1.3l0,0l0,4.4l0,5.7c0,0,0,0,0,0l0,9.2c0,0.1,0,0.3,0,0.4c0,0,0,0,0,0
		c0,0.2,0.1,0.4,0.2,0.5c0,0,0,0,0,0c0,0.1,0.1,0.1,0.1,0.1c0,0,0,0,0,0c0,0,0.1,0.1,0.1,0.1c0,0,0,0,0,0c0,0,0.1,0.1,0.1,0.1
		c0,0,0,0,0,0c0,0,0.1,0.1,0.1,0.1c0,0,0,0,0,0c0,0,0,0,0,0c0.1,0.1,0.3,0.2,0.4,0.3c0,0,0,0,0,0c0,0,0.1,0,0.1,0c0,0,0,0,0,0
		c0,0,0,0,0,0c0,0,0,0,0,0c0,0,0,0,0,0c0,0,0,0,0,0c0,0,0,0,0,0s0,0,0,0c0,0,0,0,0,0c0,0,0,0,0.1,0c0,0,0,0,0,0c0,0,0,0,0.1,0
		c0,0,0,0,0,0c0.1,0,0.2,0,0.4,0l6.7,0h0h4C54.7,37.2,54.6,36.6,54.6,36z M51,37c-0.3,0-0.6-0.2-0.8-0.5c-0.1-0.1-0.1-0.3-0.1-0.4
		s0-0.3,0.1-0.4c0.2-0.3,0.4-0.5,0.8-0.5c0.3,0,0.6,0.2,0.8,0.4c0.1,0.1,0.1,0.3,0.1,0.5C51.9,36.6,51.5,37,51,37z M64.5,37.7
		c1,0,1.8-0.8,1.8-1.8v-3.7v-7.9v-1.5c0-1-0.8-1.8-1.8-1.8h-6.1c-1,0-1.8,0.8-1.8,1.8V36c0,1,0.8,1.8,1.8,1.8
		C58.3,37.7,64.5,37.7,64.5,37.7z M61.4,37c-0.5,0-0.9-0.4-0.9-0.9c0-0.5,0.4-0.9,0.9-0.9c0.5,0,0.9,0.4,0.9,0.9
		C62.3,36.6,61.9,37,61.4,37z M58.1,24.3h6.6v10.3h-6.6V24.3z"/>
	<g>
		<path class="st13" d="M97.4,2.4h9.7c6.1,0,9.1,3.1,9.1,8.7V29c0,5.7-3,8.7-9.1,8.7h-9.7V2.4z M103.5,7.5v25.2h3.4
			c1.9,0,3.1-0.9,3.1-3.4V10.9c0-2.5-1.2-3.4-3.1-3.4H103.5z"/>
	</g>
</g>
</svg>
